<svg width="85" height="19" viewBox="0 0 85 19" fill="none" xmlns="http://www.w3.org/2000/svg">
<path d="M0.0925109 12.513L0.415009 11.7786C0.634895 11.2792 1.03069 11.1471 1.52909 11.5142C2.48193 12.2192 4.05045 12.7333 6.14669 12.7333C7.93509 12.7333 8.69736 12.278 8.69736 11.7345C8.69736 11.1177 8.06702 10.9561 7.02623 10.824L4.65147 10.5155C1.79296 10.1337 0.356373 9.10557 0.356373 7.31375C0.356373 5.38975 1.92489 3.8623 5.56033 3.8623C7.58327 3.8623 8.88792 4.17073 9.73815 4.49385C10.6763 4.86102 10.8083 5.16945 10.8083 5.93317V6.93189C10.8083 7.54875 10.5884 7.75436 9.98735 7.75436H9.31304C8.69736 7.75436 8.49213 7.53406 8.49213 6.93189V6.60878C8.09634 6.47659 7.11418 6.28566 5.97078 6.28566C3.96249 6.28566 2.995 6.65284 2.995 7.26969C2.995 7.72499 3.58136 7.98936 4.65147 8.13623L6.98225 8.44465C9.79678 8.79714 11.292 9.64899 11.292 11.7052C11.292 13.7907 9.31304 15.1272 5.78021 15.1272C3.18556 15.1272 1.10398 14.3048 0.268419 13.541C-0.0247613 13.2473 -0.0687383 12.8801 0.0925109 12.513Z" fill="black"/>
<path d="M25.833 14.9505H24.631C24.0446 14.9505 23.854 14.8623 23.5609 14.4217L21.3034 11.0878C20.9809 10.6325 20.7317 10.515 20.0573 10.515H17.7999V14.128C17.7999 14.7448 17.58 14.9505 16.979 14.9505H16.1141C15.4984 14.9505 15.2932 14.7301 15.2932 14.128V3.28896H14.4869C13.8712 3.28896 13.666 3.06866 13.666 2.46649V1.73214C13.666 1.11529 13.8859 0.909668 14.4869 0.909668H16.9936C17.6093 0.909668 17.8145 1.12997 17.8145 1.73214V8.07693H19.8375C20.5118 8.07693 20.7463 7.97412 21.0835 7.50414L22.9745 4.58142C23.2823 4.12612 23.4729 4.038 24.0593 4.038H25.2613C25.921 4.038 26.0382 4.56673 25.6718 5.11015L23.5609 8.31192C23.341 8.62035 23.0771 8.94346 22.8279 9.20783C23.0918 9.42814 23.4582 9.79531 23.6048 10.0156L26.2435 13.9077C26.6099 14.4217 26.478 14.9505 25.833 14.9505Z" fill="black"/>
<path d="M30.1228 16.9479V16.2283C30.1228 15.6114 30.3426 15.4058 30.9437 15.4058H31.9845C32.6148 15.4058 32.9226 15.2736 33.1572 14.7743L33.2891 14.4952L28.305 5.05145C27.9972 4.47866 28.2464 4.05273 28.8914 4.05273H30.0201C30.6065 4.05273 30.8704 4.15554 31.0903 4.58147L33.1718 8.87008C33.6556 9.85411 34.198 10.985 34.6231 11.969C35.0629 11.0144 35.5613 9.91285 36.0303 8.9582L38.1559 4.58147C38.3465 4.17023 38.6397 4.05273 39.226 4.05273H40.3548C41.0144 4.05273 41.249 4.49334 40.9411 5.05145L35.2681 15.8464C34.6084 17.0948 33.8608 17.7851 32.1604 17.7851H30.9143C30.328 17.7851 30.1228 17.5648 30.1228 16.9479Z" fill="black"/>
<path d="M56.2701 9.50212C56.2701 12.9683 53.7047 15.1272 50.2452 15.1272C48.75 15.1272 47.6066 14.7601 46.8003 14.3048V17.2715C46.8003 17.8884 46.5805 18.094 45.9794 18.094H45.1146C44.4989 18.094 44.2937 17.8737 44.2937 17.2715V6.43253H43.4874C42.8717 6.43253 42.6665 6.21223 42.6665 5.61006V4.87571C42.6665 4.25885 42.8864 4.05324 43.4874 4.05324H45.5983C46.214 4.05324 46.4192 4.27354 46.4192 4.87571V4.93446C47.2401 4.39104 48.4861 3.8623 50.2452 3.8623C53.7047 3.87699 56.2701 6.03598 56.2701 9.50212ZM53.6608 9.50212C53.6608 7.47531 52.0336 6.34441 50.0107 6.34441C48.5594 6.34441 47.372 6.96126 46.815 7.46062V11.5583C47.3867 12.0577 48.5594 12.6745 50.0107 12.6745C52.0336 12.6598 53.6608 11.5289 53.6608 9.50212Z" fill="black"/>
<path d="M69.9266 8.65023C69.9266 9.26709 69.7067 9.47271 69.1057 9.47271H68.2408C67.6251 9.47271 67.4199 9.29646 67.4199 8.65023C67.4199 7.03466 66.8042 6.315 65.3383 6.315C63.9457 6.315 62.7876 7.18153 62.1426 8.239V14.1285C62.1426 14.7453 61.9227 14.951 61.3217 14.951H60.4568C59.8412 14.951 59.6359 14.7307 59.6359 14.1285V6.43249H58.8297C58.214 6.43249 58.0088 6.21219 58.0088 5.61002V4.87567C58.0088 4.25882 58.2287 4.0532 58.8297 4.0532H60.9406C61.5563 4.0532 61.7615 4.2735 61.7615 4.87567V5.58065C62.5384 4.71411 63.7258 3.87695 65.7487 3.87695C68.7099 3.87695 69.9266 5.63939 69.9266 8.65023Z" fill="black"/>
<path d="M71.4824 9.50208C71.4824 6.27094 74.209 3.87695 77.8298 3.87695C81.4212 3.87695 84.1332 6.27094 84.1332 9.50208C84.1332 12.7479 81.4066 15.1419 77.8298 15.1419C74.209 15.1419 71.4824 12.7479 71.4824 9.50208ZM81.6411 9.50208C81.6411 7.62214 79.9846 6.25625 77.8298 6.25625C75.6309 6.25625 73.9745 7.63683 73.9745 9.50208C73.9745 11.3967 75.6309 12.7773 77.8298 12.7773C79.9993 12.7773 81.6411 11.3967 81.6411 9.50208Z" fill="black"/>
</svg>
